<?xml version="1.0" encoding="utf-8"?>
<!-- Generator: Adobe Illustrator 21.1.0, SVG Export Plug-In . SVG Version: 6.00 Build 0)  -->
<svg version="1.1" id="Layer_1" xmlns="http://www.w3.org/2000/svg" xmlns:xlink="http://www.w3.org/1999/xlink" x="0px" y="0px"
	 viewBox="0 0 3000 3700" style="enable-background:new 0 0 3000 3700;" xml:space="preserve">
<linearGradient id="SVGID_1_" gradientUnits="userSpaceOnUse" x1="782.2259" y1="2293.3655" x2="2038.5315" y2="796.1586">
	<stop  offset="0" style="stop-color:#2B295B"/>
	<stop  offset="0.3985" style="stop-color:#562C5B"/>
	<stop  offset="0.575" style="stop-color:#813159"/>
	<stop  offset="0.8603" style="stop-color:#C23955"/>
	<stop  offset="0.995" style="stop-color:#DB3C54"/>
</linearGradient>
<path style="fill:url(#SVGID_1_);" d="M1484,1060c0,0-359-5-398,385c0,0-32,239,191,360c0,0,186,137,423,13c0,0,187-107,196-348
	c0,0-2-397,377-378c0,0,326,29,326,374c0,0,36,432-391,825c0,0-509,514-1284,106c0,0-523-290-523-920c0,0-64-768,734-1080
	c0,0,241-72,344-62c0,0,73,29,75,93c0,0,4,70-50,110c0,0-3,4-44,4c0,0-855,21-861,964c0,0,34,843,955,852c0,0,753-3,843-855
	c0,0,40-209-154-207c0,0-133-12-141,123c0,0,15,228-120,396c0,0-201,331-651,238c0,0-523-128-441-707c0,0,97-499,628-485
	c0,0,106,3,107,87c0,0,7,81-74,110c0,0-24,4-42,2H1484z"/>
<g>
	<path style="fill:#28285B;" d="M333.8,2903.5c0-20,3.6-38.6,10.8-55.6c7.2-17,17-31.3,29.4-42.9c12.4-11.5,27-20.6,43.7-27.1
		c16.8-6.5,34.5-9.8,53.3-9.8c44.8,0,79.9,18.1,105.5,54.3l-37.7,21.5c-7.3-10.4-16.8-19-28.7-25.5c-11.9-6.6-24.9-9.9-39-9.9
		c-25.9,0-47.4,9-64.5,26.9c-17.1,17.9-25.6,40.6-25.6,68.1c0,27.5,8.5,50.2,25.6,68.2c17.1,18,38.6,27.1,64.5,27.1
		c12.3,0,23.9-2.4,35-7.1s20-10.3,26.8-16.6v-41H455v-40.4h123.8v98.3c-13.4,14.8-29.2,26.4-47.4,34.7
		c-18.2,8.3-38.3,12.4-60.4,12.4c-25.3,0-48.3-5.6-69-16.7c-20.7-11.1-37.3-27.1-49.7-47.9C340,2953.9,333.8,2930.1,333.8,2903.5z"
		/>
	<path style="fill:#28285B;" d="M710.2,2973.1c-11.3-20.6-16.9-43.8-16.9-69.7c0-25.9,5.6-49.1,16.9-69.7s27.1-36.7,47.5-48.3
		c20.4-11.6,43.4-17.4,69.2-17.4c19.3,0,37.2,3.4,53.9,10.2c16.7,6.8,30.8,16.2,42.5,28.1s20.8,26.2,27.5,42.9
		c6.6,16.7,10,34.7,10,54.1c0,19.3-3.3,37.4-10,54.1c-6.6,16.7-15.8,31-27.5,42.9s-25.8,21.3-42.5,28.1
		c-16.7,6.8-34.6,10.2-53.9,10.2c-25.8,0-48.8-5.8-69.2-17.4C737.3,3009.8,721.5,2993.7,710.2,2973.1z M740.3,2903.5
		c0,27.4,7.9,50.1,23.7,68c15.8,17.9,36.8,26.9,62.8,26.9c25.9,0,46.8-9,62.8-26.9c15.9-17.9,23.9-40.6,23.9-68
		c0-27.5-8-50.3-23.9-68.1c-16-17.9-36.9-26.8-62.8-26.8c-26,0-47,8.9-62.8,26.7C748.2,2853,740.3,2875.8,740.3,2903.5z"/>
	<path style="fill:#28285B;" d="M1215.6,2997.4l25.5-35.3c10,10.6,22,19.3,36.2,26.1c14.2,6.8,29.7,10.2,46.7,10.2
		c17.5,0,30.6-3.6,39.3-10.7c8.7-7.1,13.1-15.6,13.1-25.3c0-5.9-1.8-11-5.3-15.4c-3.5-4.4-8.2-7.9-14.1-10.7
		c-5.9-2.8-12.6-5.2-20.2-7.3s-15.6-4.3-23.9-6.6c-8.4-2.3-16.8-4.6-25.3-7c-8.5-2.4-16.6-5.5-24.2-9.4c-7.6-3.9-14.3-8.4-20.2-13.6
		c-5.9-5.2-10.6-11.8-14.1-19.8c-3.5-8.1-5.3-17.3-5.3-27.6c0-21.8,8.8-40,26.5-54.5c17.7-14.5,40.6-21.8,68.8-21.8
		c40.5,0,73.2,12.1,98.3,36.2l-26.4,34.1c-9.8-9.9-21.4-17.3-34.6-22.4c-13.2-5.1-26.9-7.6-41.1-7.6c-13.4,0-24.1,3-32.3,9
		c-8.1,6-12.2,13.9-12.2,23.8c0,5.1,1.7,9.7,5.1,13.6c3.4,3.9,8.1,7.1,13.9,9.6c5.9,2.5,12.6,4.8,20.2,7c7.6,2.1,15.6,4.4,24,6.8
		c8.4,2.4,16.8,4.7,25.2,7.1c8.4,2.4,16.5,5.6,24.2,9.7c7.7,4.1,14.6,8.8,20.5,14.2c5.9,5.4,10.6,12.2,14.1,20.4
		c3.5,8.2,5.2,17.6,5.2,28c0,11.1-2,21.4-6.1,30.9c-4,9.5-10.1,18.1-18.1,25.6c-8,7.5-18.6,13.4-31.9,17.6s-28.5,6.4-45.6,6.4
		C1277.1,3038.8,1241.7,3025,1215.6,2997.4z"/>
	<path style="fill:#28285B;" d="M1512.4,3034l102.8-261.5h57.2L1775,3034H1723l-19.3-50.1h-119.8l-19.3,50.1H1512.4z M1596.6,2943.5
		h94.2l-47.1-124.6L1596.6,2943.5z"/>
	<path style="fill:#28285B;" d="M1881.9,3034v-261.5h45.9v221.1h115.2v40.4H1881.9z"/>
	<path style="fill:#28285B;" d="M2153.1,2930.8v-158.3h45.9v157c0,21.2,5.8,38,17.3,50.3c11.6,12.3,28.1,18.5,49.7,18.5
		c21.3,0,37.8-6.2,49.4-18.5c11.6-12.3,17.3-29.1,17.3-50.3v-157h45.9v157.9c0,33.4-9.6,59.8-28.7,79.2
		c-19.2,19.4-47.1,29.1-83.9,29.1c-36.9,0-65-9.7-84.2-29.1C2162.7,2990.3,2153.1,2964,2153.1,2930.8z"/>
	<path style="fill:#28285B;" d="M2496.4,2997.4l25.5-35.3c10,10.6,22,19.3,36.2,26.1c14.2,6.8,29.7,10.2,46.7,10.2
		c17.5,0,30.6-3.6,39.3-10.7c8.7-7.1,13.1-15.6,13.1-25.3c0-5.9-1.8-11-5.3-15.4c-3.5-4.4-8.2-7.9-14.1-10.7
		c-5.9-2.8-12.6-5.2-20.2-7.3s-15.6-4.3-23.9-6.6c-8.4-2.3-16.8-4.6-25.3-7c-8.5-2.4-16.6-5.5-24.2-9.4c-7.6-3.9-14.3-8.4-20.2-13.6
		c-5.9-5.2-10.6-11.8-14.1-19.8c-3.5-8.1-5.3-17.3-5.3-27.6c0-21.8,8.8-40,26.5-54.5c17.7-14.5,40.6-21.8,68.8-21.8
		c40.5,0,73.2,12.1,98.3,36.2l-26.4,34.1c-9.8-9.9-21.4-17.3-34.6-22.4c-13.2-5.1-26.9-7.6-41.1-7.6c-13.4,0-24.2,3-32.3,9
		c-8.1,6-12.2,13.9-12.2,23.8c0,5.1,1.7,9.7,5.2,13.6c3.4,3.9,8.1,7.1,13.9,9.6c5.8,2.5,12.6,4.8,20.2,7s15.6,4.4,24,6.8
		c8.4,2.4,16.8,4.7,25.2,7.1c8.4,2.4,16.5,5.6,24.2,9.7c7.7,4.1,14.6,8.8,20.5,14.2c5.9,5.4,10.6,12.2,14.1,20.4
		c3.5,8.2,5.2,17.6,5.2,28c0,11.1-2,21.4-6.1,30.9c-4,9.5-10.1,18.1-18.1,25.6c-8,7.5-18.6,13.4-31.9,17.6
		c-13.3,4.3-28.5,6.4-45.6,6.4C2557.8,3038.8,2522.4,3025,2496.4,2997.4z"/>
</g>
<g>
	<path style="fill:#28285B;" d="M598,3287v-115.9h25.2v15.8c2.9-4.4,7.9-8.6,15.1-12.7c7.1-4.1,14.7-6.1,22.7-6.1
		c8.3,0,15.2,1.9,20.5,5.7c5.3,3.8,9,9.1,11,15.7c3.7-5.8,9.1-10.8,16.4-15.1c7.2-4.3,14.9-6.4,23.1-6.4c10.8,0,19.1,2.9,24.8,8.8
		c5.7,5.9,8.6,14.6,8.6,26.3v83.8h-25.2v-75.6c0-6.5-1.5-11.6-4.6-15.3c-3.1-3.7-7.9-5.6-14.4-5.6c-5.2,0-10.3,1.5-15.3,4.6
		c-4.9,3.1-8.8,6.7-11.6,10.7v81.1H669v-75.6c0-13.9-6.4-20.9-19.1-20.9c-5.2,0-10.2,1.5-15.1,4.6c-4.9,3.1-8.8,6.7-11.7,11v80.9
		H598z"/>
	<path style="fill:#28285B;" d="M790.9,3251.3c0-6.4,1.2-12.1,3.6-17.1c2.4-5,5.5-8.9,9.4-11.9c3.9-2.9,8.2-5.2,12.8-6.7
		c4.6-1.5,9.4-2.2,14.3-2.2c16.4,0,28.9,5.1,37.5,15.2v-17.2c0-6.6-2.5-11.8-7.5-15.7c-5-3.9-11.5-5.8-19.7-5.8
		c-13,0-24.4,4.8-34.3,14.2l-10.2-17.2c13.2-12.6,29.4-18.9,48.6-18.9c6.7,0,12.9,0.8,18.5,2.3c5.6,1.5,10.7,3.9,15.2,7
		c4.5,3.2,8.1,7.5,10.7,13.1c2.6,5.6,3.9,12.1,3.9,19.6v76.8h-25.2v-12.7c-4.4,5-9.8,8.9-16.3,11.6s-13.5,4.1-21.2,4.1
		c-4.8,0-9.6-0.8-14.2-2.5c-4.7-1.6-9-4-12.9-7.1c-3.9-3.1-7.1-7.2-9.4-12.2C792.1,3263.1,790.9,3257.5,790.9,3251.3z M816.1,3251.8
		c0,6.1,2.3,11.1,7,14.8c4.7,3.8,10.6,5.6,17.8,5.6c5.7,0,11-1,16-3.1c4.9-2.1,8.8-5,11.6-8.8V3243c-2.8-3.8-6.7-6.7-11.6-8.8
		c-4.9-2.1-10.3-3.1-16-3.1c-7.2,0-13.1,1.9-17.8,5.6C818.4,3240.5,816.1,3245.5,816.1,3251.8z"/>
	<path style="fill:#28285B;" d="M926.3,3287v-160.1h25.2V3227l51.2-55.9h31.2l-48.3,52.5l49.2,63.4h-31.6l-35.5-47.8l-16.2,16.6
		v31.2H926.3z"/>
	<path style="fill:#28285B;" d="M1044.2,3228.9c0-11.1,2.5-21.3,7.4-30.5c4.9-9.3,11.9-16.6,21-22c9-5.4,19.1-8.1,30.3-8.1
		c17.1,0,30.9,5.9,41.3,17.8c10.4,11.8,15.6,27,15.6,45.4v6h-89.4c1,9.2,4.8,16.8,11.3,22.9c6.5,6.1,15.1,9.1,25.7,9.1
		c5.9,0,11.8-1.1,17.9-3.4c6.1-2.2,11.1-5.4,15.1-9.4l11.4,16.5c-5.7,5.4-12.6,9.6-20.7,12.5c-8.1,2.9-16.8,4.3-26.2,4.3
		c-17.5,0-32-5.6-43.4-16.9C1049.9,3261.7,1044.2,3247,1044.2,3228.9z M1070.1,3219.6h65.4c-0.2-3.6-0.9-7.1-2.2-10.6
		c-1.3-3.5-3.2-6.8-5.7-9.9c-2.5-3.1-5.9-5.6-10.2-7.5c-4.3-1.9-9.1-2.8-14.6-2.8c-5.2,0-9.8,0.9-14,2.8c-4.2,1.8-7.6,4.3-10.1,7.4
		c-2.5,3.1-4.5,6.4-6,9.8C1071.3,3212.3,1070.4,3215.9,1070.1,3219.6z"/>
	<path style="fill:#28285B;" d="M1229.9,3171.1h26.8l33.9,86.8l33.9-86.8h27.1l-55.9,136.8c-3.8,9.4-9,16-15.6,20
		c-6.6,3.9-14.6,6-24.3,6.2c-5.2,0-10-0.6-14.2-1.6l3.9-22.6c2.9,1.2,6.1,1.9,9.6,1.9c4.1,0,7.5-0.7,10.1-2.2
		c2.6-1.5,4.7-4.1,6.4-7.8l5.7-13.2L1229.9,3171.1z"/>
	<path style="fill:#28285B;" d="M1360.2,3228.9c0-8.3,1.4-16.1,4.2-23.5s6.7-13.8,11.8-19.3s11.3-9.9,18.8-13.1
		c7.5-3.2,15.7-4.8,24.7-4.8c12,0,22.6,2.8,31.8,8.3c9.2,5.5,16.1,12.9,20.8,22c4.7,9.1,7.1,19.2,7.1,30.4c0,11.3-2.4,21.5-7.1,30.6
		c-4.7,9.2-11.7,16.5-20.8,22.1c-9.2,5.5-19.7,8.3-31.8,8.3c-9,0-17.2-1.6-24.7-4.9s-13.8-7.6-18.8-13.1s-9-12-11.8-19.4
		C1361.6,3245.1,1360.2,3237.2,1360.2,3228.9z M1386.3,3228.9c0,10.8,3,19.9,9,27.4c6,7.5,14.1,11.3,24.4,11.3
		c10.4,0,18.6-3.7,24.6-11.2c6-7.5,9-16.6,9-27.5c0-10.7-3-19.8-9-27.2c-6-7.4-14.2-11.1-24.6-11.1c-10.2,0-18.4,3.7-24.4,11.1
		C1389.3,3209.1,1386.3,3218.2,1386.3,3228.9z"/>
	<path style="fill:#28285B;" d="M1504.8,3253.1v-82h25.2v72.9c0,8.6,2,14.7,6,18.2c4,3.6,9.8,5.3,17.3,5.3c6,0,11.7-1.4,17-4.3
		c5.3-2.9,9.6-6.5,12.8-10.8v-81.3h25.2V3287h-25.2v-15.4c-4.7,5.2-10.6,9.6-17.6,13.1c-7.1,3.5-14.9,5.2-23.4,5.2
		c-12.3,0-21.6-3.1-27.9-9.4C1507.9,3274.3,1504.8,3265.2,1504.8,3253.1z"/>
	<path style="fill:#28285B;" d="M1702.5,3287v-160.1h25.2v60c4.4-5.2,10.2-9.6,17.5-13.2c7.3-3.7,15.2-5.5,23.7-5.5
		c12.4,0,21.8,3.1,28,9.4c6.3,6.3,9.4,15.4,9.4,27.4v82H1781v-73c0-8.5-2-14.5-6-18.1c-4-3.6-9.9-5.3-17.5-5.3
		c-6,0-11.7,1.5-16.9,4.5c-5.3,3-9.6,6.7-12.8,11.1v80.9H1702.5z"/>
	<path style="fill:#28285B;" d="M1831.9,3251.3c0-6.4,1.2-12.1,3.6-17.1c2.4-5,5.5-8.9,9.4-11.9c3.9-2.9,8.2-5.2,12.8-6.7
		c4.6-1.5,9.4-2.2,14.3-2.2c16.4,0,28.9,5.1,37.5,15.2v-17.2c0-6.6-2.5-11.8-7.5-15.7c-5-3.9-11.5-5.8-19.7-5.8
		c-13,0-24.4,4.8-34.3,14.2l-10.2-17.2c13.2-12.6,29.4-18.9,48.6-18.9c6.7,0,12.9,0.8,18.5,2.3s10.7,3.9,15.2,7
		c4.5,3.2,8.1,7.5,10.7,13.1c2.6,5.6,3.9,12.1,3.9,19.6v76.8h-25.2v-12.7c-4.4,5-9.8,8.9-16.3,11.6c-6.5,2.7-13.5,4.1-21.2,4.1
		c-4.8,0-9.6-0.8-14.2-2.5c-4.7-1.6-9-4-12.9-7.1c-3.9-3.1-7.1-7.2-9.4-12.2C1833,3263.1,1831.9,3257.5,1831.9,3251.3z M1857,3251.8
		c0,6.1,2.3,11.1,7,14.8c4.7,3.8,10.6,5.6,17.8,5.6c5.7,0,11-1,16-3.1c4.9-2.1,8.8-5,11.6-8.8V3243c-2.8-3.8-6.7-6.7-11.6-8.8
		c-4.9-2.1-10.3-3.1-16-3.1c-7.2,0-13.1,1.9-17.8,5.6C1859.4,3240.5,1857,3245.5,1857,3251.8z"/>
	<path style="fill:#28285B;" d="M1967.3,3331.2v-160.1h25.2v15.8c4.4-5.9,9.8-10.4,16.3-13.8c6.5-3.3,13.5-5,20.9-5
		c15.3,0,27.7,5.4,37.1,16.3c9.5,10.9,14.2,25.7,14.2,44.4c0,18.8-4.7,33.7-14.2,44.6c-9.5,10.9-21.9,16.4-37.1,16.4
		c-7.3,0-14.2-1.6-20.6-4.9c-6.4-3.2-12-7.9-16.6-14.1v60.2H1967.3z M1992.5,3252c2.8,4.3,7,8,12.7,11c5.7,3,11.3,4.6,17.1,4.6
		c9.8,0,17.8-3.6,23.7-10.8c6-7.2,9-16.5,9-27.9c0-11.3-3-20.4-9-27.6s-13.9-10.7-23.7-10.7c-5.8,0-11.5,1.5-17.1,4.5
		c-5.6,3-9.8,6.7-12.7,11.1V3252z"/>
	<path style="fill:#28285B;" d="M2106,3331.2v-160.1h25.2v15.8c4.4-5.9,9.8-10.4,16.3-13.8c6.5-3.3,13.5-5,20.9-5
		c15.3,0,27.7,5.4,37.1,16.3c9.5,10.9,14.2,25.7,14.2,44.4c0,18.8-4.7,33.7-14.2,44.6c-9.5,10.9-21.9,16.4-37.1,16.4
		c-7.3,0-14.2-1.6-20.6-4.9c-6.4-3.2-12-7.9-16.6-14.1v60.2H2106z M2131.1,3252c2.8,4.3,7,8,12.7,11c5.7,3,11.3,4.6,17.1,4.6
		c9.8,0,17.8-3.6,23.7-10.8c6-7.2,9-16.5,9-27.9c0-11.3-3-20.4-9-27.6s-13.9-10.7-23.7-10.7c-5.8,0-11.5,1.5-17.1,4.5
		c-5.6,3-9.8,6.7-12.7,11.1V3252z"/>
	<path style="fill:#28285B;" d="M2237.4,3228.9c0-11.1,2.5-21.3,7.4-30.5c4.9-9.3,11.9-16.6,21-22c9-5.4,19.1-8.1,30.3-8.1
		c17.1,0,30.9,5.9,41.3,17.8c10.4,11.8,15.6,27,15.6,45.4v6h-89.4c1,9.2,4.8,16.8,11.3,22.9c6.5,6.1,15.1,9.1,25.7,9.1
		c5.9,0,11.8-1.1,17.9-3.4c6.1-2.2,11.1-5.4,15.1-9.4l11.4,16.5c-5.7,5.4-12.6,9.6-20.7,12.5c-8.1,2.9-16.8,4.3-26.2,4.3
		c-17.5,0-32-5.6-43.4-16.9C2243.1,3261.7,2237.4,3247,2237.4,3228.9z M2263.3,3219.6h65.4c-0.2-3.6-0.9-7.1-2.2-10.6
		c-1.3-3.5-3.2-6.8-5.7-9.9c-2.5-3.1-5.9-5.6-10.2-7.5c-4.3-1.9-9.1-2.8-14.6-2.8c-5.2,0-9.8,0.9-14,2.8c-4.2,1.8-7.6,4.3-10.1,7.4
		c-2.5,3.1-4.5,6.4-6,9.8C2264.5,3212.3,2263.6,3215.9,2263.3,3219.6z"/>
	<path style="fill:#28285B;" d="M2378.2,3287v-115.9h25.2v15.8c4.4-5.2,10.2-9.6,17.3-13.2c7.2-3.7,15-5.5,23.4-5.5
		c12.3,0,21.7,3.2,28,9.6c6.3,6.4,9.5,15.6,9.5,27.7v81.6h-25.2v-72.4c0-8.6-2-14.7-6-18.5c-4-3.7-9.8-5.6-17.3-5.6
		c-6.1,0-11.8,1.5-17.1,4.5c-5.3,3-9.5,6.7-12.7,11.1v80.9H2378.2z"/>
</g>
</svg>
